# xmcd
#
# Track frame offsets:
#	150
#	13856
#	32522
#	52469
#	59822
#	77819
#	95760
#	114649
#	130612
#	160089
#	183875
#
# Disc length: 2683 seconds
#
# Revision: 0
# Processed by: cddbd v1.5.1PL2 Copyright (c) Steve Scherf et al.
# Submitted via: dBpowerAMP V4.0
#
DISCID=960a790b
DTITLE=Jose Luis Pardo and The Mojo workers - That's Right
DYEAR=1900
DGENRE=Blues
TTITLE0=Jump Jive and Wail
TTITLE1=Is you is or is you ain't?
TTITLE2=Ain't no love
TTITLE3=That's right
TTITLE4=Stoppin' me cold'
TTITLE5=Running out of time
TTITLE6=Esta vez no se le va a pasar
TTITLE7=Cansado
TTITLE8=Kidney Stew
TTITLE9=Rock me baby
TTITLE10=Caldonia
EXTD=
EXTT0=
EXTT1=
EXTT2=
EXTT3=
EXTT4=
EXTT5=
EXTT6=
EXTT7=
EXTT8=
EXTT9=
EXTT10=
PLAYORDER=
